<svg width="221" height="202" viewBox="0 0 221 202" xmlns="http://www.w3.org/2000/svg">
  <g id="g38" transform="matrix(1.3333333,0,0,-1.3333333,0,864)">
    <g id="g3265">
      <path fill="#0a2240" d="m 90.72722,646.90563 v -33.21 h 10.965 l -18.909,-27.0045 -18.909,27.0045 h 10.9635 v 33.21 H 1.50722 v -33.21 h 21.825 l 40.8015,-58.272 v -24.348 h -25.1175 v -33.21 h 87.5325 v 33.21 h -25.1175 v 24.348 l 40.803,58.272 h 21.8235 v 33.21 z" id="path196" />
      <path fill="#fff"
         d="m 160.86422,616.89063 h -20.2935 l -42.3345,-60.4605 v -28.5495 h 25.1175 v -26.82 h -81.1425 v 26.82 h 25.1175 v 28.5495 l -42.3345,60.4605 h -20.292 v 26.82 h 66.9405 v -26.82 h -13.9065 l 25.047,-35.7705 25.0455,35.7705 h -13.9065 v 26.82 h 66.942 z" id="path2534" />
      <path d="m 82.78277,575.55033 -31.1835,44.535 h 16.8495 v 20.43 h -60.552 v -20.43 h 18.7605 l 43.866,-62.6475 v -32.751 h -25.1175 v -20.4315 h 74.754 v 20.4315 h -25.1175 v 32.751 l 43.866,62.6475 h 18.7605 v 20.43 h -60.552 v -20.43 h 16.8495 z" fill="#0a2240" id="path192" />
    </g>
  </g>
</svg>
