<?xml version="1.0" encoding="UTF-8" standalone="no"?>
<svg
   viewBox="0 0 90.6 20.6"
   version="1.1"
   id="svg1"
   sodipodi:docname="Zoom.svg"
   inkscape:version="1.4 (e7c3feb1, 2024-10-09)"
   xmlns:inkscape="http://www.inkscape.org/namespaces/inkscape"
   xmlns:sodipodi="http://sodipodi.sourceforge.net/DTD/sodipodi-0.dtd"
   xmlns="http://www.w3.org/2000/svg"
   xmlns:svg="http://www.w3.org/2000/svg">
  <sodipodi:namedview
     id="namedview1"
     pagecolor="#ffffff"
     bordercolor="#000000"
     borderopacity="0.25"
     inkscape:showpageshadow="2"
     inkscape:pageopacity="0.0"
     inkscape:pagecheckerboard="0"
     inkscape:deskcolor="#d1d1d1"
     inkscape:zoom="5.9301395"
     inkscape:cx="38.447662"
     inkscape:cy="16.947325"
     inkscape:window-width="1024"
     inkscape:window-height="640"
     inkscape:window-x="0"
     inkscape:window-y="0"
     inkscape:window-maximized="0"
     inkscape:current-layer="Layer_2" />
  <defs
     id="defs1">
    <style
       id="style1">.cls-1{fill:#0d213f;}.cls-2{fill:#0b5cff;}</style>
  </defs>
  <g
     id="Layer_2"
     data-name="Layer 2"
     style="fill:#ffffff">
    <g
       id="Layer_1-2"
       data-name="Layer 1"
       style="fill:#ffffff">
      <path
         class="cls-2"
         d="M19,20.33H2.89A2.89,2.89,0,0,1,.31,18.82a2.81,2.81,0,0,1,.51-3.27L12,4.33H4a4,4,0,0,1-4-4H14.85a2.89,2.89,0,0,1,2.58,1.51,2.81,2.81,0,0,1-.51,3.27L5.7,16.33H15A4,4,0,0,1,19,20.33ZM82.81,0A7.8,7.8,0,0,0,77,2.62,7.8,7.8,0,0,0,71.19,0,8,8,0,0,0,63.4,8V20.33a4,4,0,0,0,4-4V7.92A3.87,3.87,0,0,1,71.05,4a3.81,3.81,0,0,1,4,3.8v8.5a4,4,0,0,0,4,4V7.92A3.87,3.87,0,0,1,82.65,4a3.81,3.81,0,0,1,3.95,3.8v8.5a4,4,0,0,0,4,4V8A8,8,0,0,0,82.81,0ZM39.2,10.33A10.3,10.3,0,1,1,28.9,0,10.31,10.31,0,0,1,39.2,10.33Zm-4,0a6.3,6.3,0,1,0-6.3,6.3A6.31,6.31,0,0,0,35.2,10.33Zm26.2,0A10.3,10.3,0,1,1,51.1,0,10.31,10.31,0,0,1,61.4,10.33Zm-4,0a6.3,6.3,0,1,0-6.3,6.3A6.31,6.31,0,0,0,57.4,10.33Z"
         id="path1"
         style="fill:#ffffff" />
    </g>
  </g>
</svg>
